<svg xmlns="http://www.w3.org/2000/svg" version="1.1" id="svg640" width="1660" height="1040"><g id="border" fill="none" stroke="#000" stroke-width="1" stroke-linecap="butt" stroke-linejoin="miter" stroke-opacity="1"><path d="M1106 248.5L570 85" id="border2"/><path d="M164 367l-93.5 31-20.5 8-20.5 14L17 434.5l-9.5 18L2 466l43 67.5 6.5 9L64 551l9.5.5 11 5 13 8.5 33 26.5L214 647l30 16" id="border1"/></g><text xml:space="preserve" x="1529.488" y="434.915" id="vologodskaya_title" class="map-caption" font-style="normal" font-weight="400" font-family="sans-serif" fill="#000" fill-opacity="1" stroke="none"><tspan id="tspan451" x="1529.488" y="434.915">Вологодская</tspan><tspan x="1529.488" y="458.915" id="tspan455">область</tspan></text><text xml:space="preserve" x="141.954" y="704.403" id="estonia_title" class="map-caption" font-style="normal" font-weight="400" font-family="sans-serif" fill="#000" fill-opacity="1" stroke="none"><tspan id="tspan447" x="141.954" y="704.403">Эстония</tspan></text><text xml:space="preserve" x="305.768" y="942.201" id="pskovskaja_title" class="map-caption" font-style="normal" font-weight="400" font-family="sans-serif" fill="#000" fill-opacity="1" stroke="none"><tspan id="tspan441" x="305.768" y="942.201">Псковская</tspan><tspan x="305.768" y="966.201" id="tspan445">область</tspan></text><text xml:space="preserve" x="1107.969" y="753.549" id="novgorodskaya_title" class="map-caption" font-style="normal" font-weight="400" font-family="sans-serif" fill="#000" fill-opacity="1" stroke="none"><tspan id="tspan435" x="1107.969" y="753.549">Новгородская</tspan><tspan x="1107.969" y="777.549" id="tspan439">область</tspan></text><text xml:space="preserve" x="1265.085" y="17.799" id="karelija_title" class="map-caption" font-style="normal" font-weight="400" font-family="sans-serif" fill="#000" fill-opacity="1" stroke="none"><tspan id="tspan429" x="1265.085" y="17.799">Республика</tspan><tspan x="1265.085" y="41.799" id="tspan433">Карелия</tspan></text><text xml:space="preserve" x="226.357" y="110.171" id="finland_title" class="map-caption" font-style="normal" font-weight="400" font-family="sans-serif" fill="#000" fill-opacity="1" stroke="none"><tspan id="tspan423" x="226.357" y="110.171">Финляндия</tspan></text><g id="kirovskij" class="group"><path d="M893 420l9.5 9.5 11 .5.5 6 12 3.5-1.5 21 4.5 3v7l7 6.5-1.5 12.5-7 7.5 9 8.5v7.5l9 2 2-3.5 2.5 3.5-2 4.5-1.5 28.5 6.5 12.5-4.5 15h-3l-5.5-8-5.5 3.5-2.5 3h-7l-4.5-6-14-1 4 8.5-3 7.5 1.5 5.5-8 5 4 8-.5 9.5 5 5.5-14 7-15 9.5-5.5 15-11 10-6.5-12-30 .5-14-36.5-4.5-1.5-15.5 7.5-16.5-3.5-15.5-1.5 1-26-33-4.5-6-6 3-3-1.5-5.5 15-13.5 18-3.5v-11l6-4 1-23 24-25 49.5 34 33.5-17 .5-47.5z" id="kirovskij_path" class="default-fill default-stroke"/><text xml:space="preserve" x="792.657" y="577.05" id="kirovskij_title" class="kirovskij-title default-title"><tspan id="tspan238" x="792.657" y="577.05">Кировский</tspan></text></g><g id="tosnenskij" class="group"><path d="M723.5 574.5l6 6 33 4.5-1 26 15.5 1.5 16.5 3.5 15.5-7.5 4.5 1.5 14 36.5 30-.5 6.5 12 11-10 3 10-.5 9-4 4-2 6.5 2 8-4 5 4 11-6.5 3.5-2 4.5V722l2.5 5.5-4.5 2.5 1 5 10 16.5-8.5 11.5h-6l-5.5 10.5-2 24.5-17.5 13.5L832 822l-4.5 1-5 4.5h-15l-9.5-14-.5-6.5-4.5-5.5-5.5-1.5-14.5 9-12.5 10.5-.5 5 12 6-8 6-11.5-9-1-13 4-7.5-1.5-1h-9l-45.5 5.5-1-6.5 16-30.5-14-26.5 5.5-6-.5-2.5-6.5-1-13-67-2.5-4-17-6 14.5-28-5-20.5 4.5-3.5v-9l-3.5-5 4-2 4.5-5h6.5l2.5-7 9.5-1 4 3 8-8z" id="tosnenskij_path" class="default-fill default-stroke"/><text xml:space="preserve" x="730.221" y="704.423" id="tosnenskij_title" class="tosnenskij-title default-title"><tspan id="tspan234" x="730.221" y="704.423">Тосненский</tspan></text></g><g id="vyborgskij" class="group"><path d="M495 429l-6.5-8 1-5 10.5-8.5h15l10.5-5.5 19 .5 9 4 8 8 8.5 2 10.5 6-.5-26.5 11-1.5 5-1.5 4.5-7-2-8.5-6.5-8.5v-4l9 2 7-12v-13l-3-14.5-7-6.5-12.5 5.5-5 8.5-10 5.5-22-.5-.5-5-8-.5-2.5-3.5-.5-6.5 9-5.5-.5-13.5-7.5-5.5-8 6.5-4.5 1.5-16-21-3.5-7 .5-12 14.5-.5 8.5-11.5-11.5-9.5-18-22.5 5.5-26.5 26 .5 3.5-3.5-1-7-7-8.5-.5-7.5L515 157l-1.5-8.5 8-10-3-12.5-7.5-5 3-20.5-1-22.5-3-17-10.5-8.5-9.5.5-10-7-2-10.5-8-10-2.5 2-18.5 26-40 28-7.5 9.5-9 1-5.5 2.5-6 4.5-22 40-7.5 19.5L329 157l-56 59.5-11 5-55.5 65v6.5l-11.5 5-3 14.5v9.5l-9.5 10.5-2.5 5v6.5l3 7-19 16 15 2 51-19 57.5-27.5 3.5-2.5 16-39 21-22.5 9.5-25.5 14-14 11.5-10h7l12.5 12 10.5 33.5-2.5 7.5-8.5 1-8.5 13-12-.5-11-5.5-5 8 2.5 18-6 11 18 13 23 11.5 27.5-13.5 15.5 17 3 30.5-3 18 8.5 15-14 25 2.5 14 24.5 5 29.5-5z" id="vyborgskij_path" class="default-fill default-stroke"/><text xml:space="preserve" x="383.716" y="298.882" id="vyborgskij_title" class="vyborgskij-title default-title"><tspan id="tspan184" x="383.716" y="298.882">Выборгский</tspan></text></g><g id="gatchinskij" class="group"><path d="M676 613l5 20.5-14.5 28 17 6 2.5 4 13 67 6.5 1 .5 2.5-5.5 6 14 26.5-16 30.5-9-2.5-3.5.5-5.5 13.5-9 6.5-11-4-30 7-8.5-14.5-5.5-40-17 6-8-3.5v-30l-14.5-6-9 10.5-22.5 7.5-6.5.5-8-11.5-1-17.5 11-9V711l5-1 .5-5.5 9.5-1.5.5-7.5 3.5-4.5-26-34-1.5-15-9-7.5-8.5-13 2.5-9 11.5-6 11 5.5 7.5-6 14 5.5L564 601l7-5 14 .5 7.5 7 5.5-2 10-7.5 9-1v-4.5l-4-7.5 8.5-22.5 16.5.5-4 8 5 5-2 6-.5 6.5-8 11 3 7.5 1.5 7 5 1.5 7-6.5 14 5.5 6.5-5L676 613" id="gatchinskij_path" class="default-fill default-stroke"/><text xml:space="preserve" x="573.642" y="708.921" id="gatchinskij_title" class="gatchinskij-title default-title"><tspan id="tspan210" x="573.642" y="708.921">Гатчинский</tspan></text></g><g id="lomonosovskij" class="group"><path d="M386 563l1 11.5 21.5 37 27.5.5 12-14.5h10l20 10.5 22.5-11 2.5.5 14.5 15 11.5-6 11 5.5 7.5-6 14 5.5L564 601l7-5 14 .5 7.5 7 5.5-2 10-7.5-11.5-12.5 4.5-6 2-14 5.5-9-12-2.5-1.5-5.5h-14.5l-5-4.5-9.5-1-5-5-9 .5-13-3.5v-10.5L502.5 500l-20.5-1.5-31-7-14.5 2.5-11 7.5-4.5 10-6.5 6 11 10.5-7 12.5L411 551l-20 3z" id="lomonosovskij_path" class="default-fill default-stroke"/><text xml:space="preserve" x="429.376" y="571.241" id="lomonosovskij_title" class="lomonosovskij-title default-title"><tspan id="tspan214" x="429.376" y="571.241">Ломоносовский</tspan></text></g><g id="volosovskij" class="group"><path d="M517.5 612.5l-2.5 9 8.5 13 9 7.5 1.5 15 26 34-3.5 4.5-.5 7.5-9.5 1.5-.5 5.5-5 1v7.5l-11 9 1 17.5 8 11.5 6.5-.5-1 14 14 12-9.5 21.5-19.5 1-9.5 8-7.5-.5-4 7.5-10-9.5H494l-29.5-18-12.5 8-11 1-11-3-15.5-12.5-15-12.5-13-16.5-.5-10 12.5 3.5 4 .5 3.5-8-10-23v-4l9-21.5-.5-2.5-10-12L407 664l1.5-12 21.5-22.5 6-17.5 12-14.5h10l20 10.5 22.5-11 2.5.5z" id="volosovskij_path" class="default-fill default-stroke"/><text xml:space="preserve" x="420.999" y="692.981" id="volosovskij_title" class="volosovskij-title default-title"><tspan id="tspan218" x="420.999" y="692.981">Волосовский</tspan></text></g><g id="kingiseppskij" class="group"><path d="M436 612l-6 17.5-21.5 22.5-1.5 12-12.5 15.5 10 12 .5 2.5-9 21.5v4l10 23-3.5 8-4-.5-12.5-3.5.5 10 13 16.5-20.5 17-6.5-2.5-3-15.5-8-1.5-2 9 5 11.5-9 1.5-7-12.5-14-2v-25.5L331 744l-11-15.5-16-1.5-15.5 5.5-12.5-8-13-5.5 8.5-17.5V698L248 672.5l-8-5 4-4.5 5.5-8 2.5-29.5-18.5-35.5 19-31 15 4 7 33 30 7.88L311 598l3.5-41.5 9-14 10.5-.5 33 23.5 9-7.5 10 5 1 11.5 21.5 37z" id="kingiseppskij_path" class="default-fill default-stroke"/><text xml:space="preserve" x="259.117" y="660.239" id="kingiseppskij_title" class="kingiseppskij-title default-title"><tspan id="tspan222" x="259.117" y="660.239">Кингисеппский</tspan></text></g><g id="kirishskij" class="group"><path d="M875 648l5.5-15 15-9.5 14-7-5-5.5.5-9.5-4-8 8-5-1.5-5.5 3-7.5-4-8.5 14 1 4.5 6h7l2.5-3 5.5-3.5 5.5 8h3l9.5 9 12-3.5 1-11 2-1 5.5 2 1 6.5 7 9-12 15 3.5 2.5 18 1 5.5-4 12.5 6.5-3.5 5.5-2 10.5 2.5 3 48.5-3.5 4-3 .5-4.5 35.5 2.5v3l-15 10.5-.5 11 3 1.5 10.5-3-.5 21-10.5 9.5 1.5 8 4 3.5 6.5 1.5 13-4.5 7.5 7-1 11.5-5.5 11.5-14 1.5-2.5 1.5-15 20-4.5 9.5 7 13.5-3 6v6l-4.5 3.5v10l-9-.5-5 10-12 1-2-5-20.5 8-12-11.5 6-5.5-3-2.5-17.5-8.5-5-6.5 3-6.5 1.5-1.5-3-5.5 3.5-8.5-.5-5-2-1-11 4-2.5-3 4-11.5 4-4.5-.5-3-2.5-1.5-8 6.5-3 .5-7-7-4-8.5-1.5-5.5-2-.5-3.5 1-2-5.5-7 .5-8-3.5 1.5-3.5v-3l-2-2-3 .5-6 5-1 3.5-1 8-13.5 9h-6l-3 4 1 4 3.5 2.5-3 4.5-3.5.5-5.5-2v-7.5l-25-12.5-4-.5-4-11 4-5-2-8 2-6.5 4-4 .5-9z" id="kirishskij_path" class="default-fill default-stroke"/><text xml:space="preserve" x="936.427" y="667.025" id="kirishskij_title" class="kirishskij-title default-title"><tspan id="tspan242" x="936.427" y="667.025">Киришский</tspan></text></g><g id="podporizhskij" class="group" display="inline"><path d="M1514.5 398.5V395l14.5-14 3.5-107.5-1.5-11-8-27.5-7.5-8v-8.5l2.5-8.5 6.5-4.5 3.5-10 17-4.5 19.5 1.5 1.5-2 .5-3 10-15-5-25.5 7-8 13.5-14.5 1.5-2 8-17.5 8-25 3-10-4-5-19.5 13-10.5 1.5-21 12.5-5.5-3.5-6-9.5v-7l4-14 2-12.5-9-2-9.5 9.5-27.5 2-27.5-4-33-11.5-7.5-8.5-13 13.5-24.5 1.5-14 19 2 9.5-3 11.5-6 5.5-5-4.5-11.5-21-17-10-11.5 1.5L1254 60l-12 4.5-15.5 1L1210 81l-8 7.5 6.5 13 9 5 9.5 12.5 14.5-1v-10l13.5-12 18 10.5h8l5 4-.5 10.5-17 38.5 5.5 9-11 15-2 15.5 13 9h5.5l13.5-3.5 2.5 1-10 14 5 5.5 24.5 3.5 3.5 12.5 9-2.5 11 5 3.5 11.5-5.5 18 .5 3 18.5 1-11.5 11v4l3.5 2.5 24-1 3 5-11 9 .5 3.5 11.5 25.5h6l4 10h12.5l5 20 4.5 9.5 9.5 1 2.5 9h12l2.5 2 1 7 1.5 1 20.5-2.5 3 2.5v8z" id="podporizhskij_path" class="default-fill default-stroke" display="inline"/><text xml:space="preserve" x="1347.669" y="193.767" id="podporizhskij_title" class="podporozhskij-title default-title"><tspan id="tspan269" x="1347.669" y="193.767">Подпорожский</tspan></text></g><g id="lodejnopolskij" class="group" display="inline"><path d="M1268.5 159.5l5.5 9-11 15-2 15.5 13 9h5.5l13.5-3.5 2.5 1-10 14 5 5.5 24.5 3.5 3.5 12.5 9-2.5 11 5 3.5 11.5-5.5 18 .5 3 18.5 1-11.5 11v4l3.5 2.5 24-1 3 5-11 9 .5 3.5 11.5 25.5h6l4 10h12.5l5 20 4.5 9.5 9.5 1 2.5 9-17.5 2.5-12.5 12 5.5 20-20.5 10-70.5.5-35.5 2.5-17-1.5-8-2.5 7-5V416l-10-12.5 2-2 12-2.5 2-1.5-8-7.5v-3.5l-2.5-2-8.5 5.5-15.5-8.5v-19l-10-13-69 1.5v-11.5l-13 3-16-21.5-16-.5-2-14.5 56 1.5 8-34.5-54-24.5 8.5-10 25-1.5 12.5-7 2.5-14.5 14-3.5 1-3.5-3.5-2.5-11-1.5 5.5-12 41-23.5 4-6-.5-3.5-3-7 .5-11 16.5-3.5 2 8 32 13.5z" id="lodejnopolskij_path" class="default-fill default-stroke" display="inline"/><text xml:space="preserve" x="1175.447" y="312.266" id="lodejnopolskij_title" class="lodejnopolskij-title default-title"><tspan id="tspan264" x="1175.447" y="312.266">Лодейнопольский</tspan></text></g><g id="volhovskij" class="group"><path d="M1096 306l2 14.5 16 .5 16 21.5 13-3V351l69-1.5 10 13v19l15.5 8.5 8.5-5.5 2.5 2v3.5l8 7.5-2 1.5-12 2.5-2 2 10 12.5v8.5l-7 5-4 15.5-2.5 2-20-6-13.5 5.5-27-8.5-8.5-21.5-6-4.5-24.5 6.5-1 19 12 28.5 9.5 15v2.5l-9.5 5.5 3.5 24-9 9.5.5 12.5-21 14-5.5 14h-18l-1.5 1.5v3l-15 5.5-1 10.5-9.5 7-8 25-.5 4.5-4 3-48.5 3.5-2.5-3 2-10.5 3.5-5.5-12.5-6.5-5.5 4-18-1-3.5-2.5 12-15-7-9-1-6.5-5.5-2-2 1-1 11-12 3.5-9.5-9 4.5-15-6.5-12.5 1.5-28.5 2-4.5-2.5-3.5-2 3.5-9-2v-7.5l-9-8.5 7-7.5L936 477l-7-6.5v-7l-4.5-3 1.5-21-12-3.5-.5-6-11-.5-9.5-9.5 51-11 39 32 27 1.5 35-20.5 13.5-23 1.5-27.5 14-16-12.5-32z" id="volhovskij_path" class="default-fill default-stroke"/><text xml:space="preserve" x="999.379" y="502.567" id="volhovskij_title" class="volhovskij-title default-title"><tspan id="tspan249" x="999.379" y="502.567">Волховский</tspan></text></g><g id="boksitogorskij" class="group"><path d="M1505.5 470.5l-17-1 8.5-27.5-12.5 2v-19l-11.5-3-7 11.5 12.5 15-11.5 8.5 2 8 4.5-1.5 7 5.5 1.5 21-14.5 7.5-21 22.5 3.5 10-14 7-2 7.5-28.5 3.5-1.5 38-4.5 11-23-3-3.5-9-2.5-1.5-59.5-5.5v-27l-2.5-1-29-2.5-17 13v45l-25 8-3 18L1247 643l3.5 10-20 14.5-2 30.5 7.5 2.5v18l6 1.5 4.5 7 16.5 7 .5 5.5 5 4-2 17.5 20-1 23.5 22 13.5 1 1.5-5.5-3-2.5.5-5h15l2.5-9.5 7-.5 6.5 9.5 8-1 2-5.5 16 19h13l7.5 7.5 16.5.5 16 12 9-3.5 3.5-11 7-2.5 4.5-29.5 13.5-1 10-3 3-6.5h9l10.5 2 10-5 2.5-8.5 31-6.5 4-8-11.5-3-4-6.5 4-7 8 2 12-13-5-15L1536 657l2-6.5 29.5 6.5 3.5-3.5-5-6v-5l4-2.5v-35l19.5 12 .5-27.5 2.5-7-10.5 6h-17.5L1554 580l-5-49.5 9.5-17 8-1.5v-19l-28-.5-1-5-6.5-1-1-6-23-3-1.5-7" id="boksitogorskij_path" class="default-fill default-stroke"/><text xml:space="preserve" x="1336.74" y="662.555" id="boksitogorskij_title" class="baksitogorskij-title default-title"><tspan id="tspan259" x="1336.74" y="662.555">Бокситогорский</tspan></text></g><g id="tihvinskij" class="group"><path d="M1064 615.5l8-25 9.5-7 1-10.5 15-5.5v-3l1.5-1.5h18l5.5-14 21-14-.5-12.5 9-9.5-3.5-24 9.5-5.5V481l-9.5-15-12-28.5 1-19 24.5-6.5 6 4.5 8.5 21.5 27 8.5 13.5-5.5 20 6 3-2 3.5-15.5 8 2.5 17 1.5 35.5-2.5 70.5-.5 20.5-10-5.5-20 12.5-12 17.5-2.5h12l2.5 2 1 7 1.5 1 20.5-2.5 3 2.5v8l54.5-5.5.5 16.5-4.5 18 8.5 13.5 1 16-14.5 8-17-1 8.5-27.5-12.5 2v-19l-11.5-3-7 11.5 12.5 15-11.5 8.5 2 8 4.5-1.5 7 5.5 1.5 21-14.5 7.5-21 22.5 3.5 10-14 7-2 7.5-28.5 3.5-1.5 38-4.5 11-23-3-4-9-2-1.5-59.5-5.5v-27l-2.5-1-29-2.5-17 13v45l-25 8-3 18L1247 643l3.5 10-20 14.5-2 30.5-9 2.5-31.5-.5-2 22-16.5-2-1-13-22.5-9.5-5.5 3.5-5.5-5 .5-9.5-16.5.5-7.5-7-13 4.5-6.5-1.5-4-3.5-1.5-8 10.5-9.5.5-21-10.5 3-3-1.5.5-11 15-10.5v-3z" id="tihvinskij_path" class="default-fill default-stroke"/><text xml:space="preserve" x="1240.904" y="505.589" id="tihvinskij_title" class="tihvinskij-title default-title"><tspan id="tspan254" x="1240.904" y="505.589">Тихвинский</tspan></text></g><g id="slancevskij" class="group"><path d="M263 719l13 5.5 12.5 8L304 727l16 1.5 11 15.5 3.5 8.5V778l14 2 7 12.5 9-1.5-5-11.5 2-9 8 1.5 3 15.5 6.5 2.5 20.5-17 15 12.5 1.5 14-9 7.5 5.5 15.5-8 .5-5-2-6 5.5 2 10-40 9.5 4.5 14-3 6.5 4.5 4.5-5.5 12-16.5-6.5-15 1-9.5-3-7 4-2.5-5.5-5 1-5 16-9.5-1-6-16v-4.5h-6l-1.5-8.5-9.5-13.5-.5-3.5-8.5-9-13.5.5-9-9-13-.5-28 15-3.5-17.5 7.5-7-2.5-4 6-6-1.5-5 3-5.5v-7.5L215 765v-11l1.5-5.5 11-11.5h3.5l10.5-5.5 15-1z" id="slancevskij_path" class="default-fill default-stroke"/><text xml:space="preserve" x="240.718" y="812.24" id="slancevskij_title" class="slancevskij-title default-title"><tspan id="tspan226" x="240.718" y="812.24">Сланцевский</tspan></text></g><g id="luzhskij" class="group"><path d="M356 883l5.5-12-4.5-4.5 3-6.5-4.5-14 40-9.5-2-10 6-5.5 5 2 8-.5L407 807l9-7.5-1.5-14L430 798l11 3 11-1 12.5-8 29.5 18h4.5l10 9.5 4-7.5 7.5.5 9.5-8 19.5-1 9.5-21.5-14-12 1-14 22.5-7.5 9-10.5 14.5 6v30l8 3.5 17-6 5.5 40 8.5 14.5 30-7 11 4 9-6.5L686 803l3.5-.5 9 2.5 1 6.5L745 806h9l1.5 1-4 7.5 1 13 11.5 9-3 4.5v11l-23 20.5-14.5 7-10.5.5-3 4.5 8.5 7-1.5 13 1.5 18-6 6.5-1.5-4.5-3.5-1-2.5.5-11 9.5-4-6.5-10-1.5-6.5 7-8 1-8.5-4.5.5-8-6.5-5-9.5 4-14.5-3-13.5 3-3 5.5v4.5l4 7-6.5 7-6 1.5-.5 3.5 6 4v4l-4.5 3 5.5 8 2.5 10 7.5 11 .5 3-10.5 8.5 3 6-8 7.5-2 8-15 3-5-4h-14l-3.5 9h-7.5l-8 2.5-11-14-5 4-14.5-5-3.5-6-7.5-4.5 8-8 .5-5-4-4.5-8.5-1-9.5-10.5-5.5-1-8 8h-9l-3-3 1-2.5 8-4.5 5-3.5-1-2.5-7.5-4h-4l-6.5 4.5-6-1-3.5-8 .5-3 1-1.5 8.5-1.5-5.5-7.5 3-4-1-7.5-14-2-8 1.5-10.5-10.5-5 1L420 899l-4-5.5-5 4-2.5 3H397l-4-5-10.5-4h-13l-7.5-6z" id="luzhskij_path" class="default-fill default-stroke"/><text xml:space="preserve" x="515.385" y="893.166" id="luzhskij_title" class="luzhskij-title default-title"><tspan id="tspan230" x="515.385" y="893.166">Лужский</tspan></text></g><g id="vsevolozhskij" class="group"><path d="M789 486l-24 25-1 23-6 4v11l-18 3.5-15 13.5-5.5-5.5-9-1-8-4.5-11-12-10.5-4-1-3 3-1.5v-6l-2.5-6 2-23.5 3.5-5.5-6.5-9-.5-6-2-3h-3l-1.5-4.5-3.5 1-8.5-6.5-1-5.5-5-8H643l-5-8-11.5.5-5.5-5.5-23.5-1.5-3-7.5-6.5-4-7.5-3.5-.5-26.5 11-1.5 5-1.5 4.5-7-2-8.5-6.5-8.5v-4l9 2 7-12v-13l-3-14.5-7-6.5 5-3.5 9 2 9.5 6 5.5 4.5 9.5-3.5h4.5l12 8h12l6 6 11.5-12.5 2 4 6 3 11.5-12.5 6-1.5 11-13.5 4 3z" id="vsevolozhskij_path" class="default-fill default-stroke"/><text xml:space="preserve" x="610.931" y="420.037" id="vsevolozhskij_title" class="vsevolozhskij-title default-title"><tspan id="tspan192" x="610.931" y="420.037">Всеволожский</tspan></text></g><g id="priozerskij" class="group"><path d="M598 321l5-3.5 9 2 9.5 6 5.5 4.5 9.5-3.5h4.5l12 8h12l6 6 11.5-12.5 2 4 6 3 11.5-12.5 6-1.5 11-13.5-41.5-40L675 200l-40-62.5L570 85l-3-3.5h-27L513 78l1 22.5-3 20.5 7.5 5 3 12.5-8 10 1.5 8.5 11.5 14.5.5 7.5 7 8.5 1 7-3.5 3.5-26-.5L500 224l18 22.5 11.5 9.5-8.5 11.5-14.5.5-.5 12 3.5 7 16 21 4.5-1.5 8-6.5 7.5 5.5.5 13.5-9 5.5.5 6.5 2.5 3.5 8 .5.5 5 22 .5 10-5.5 5-8.5z" id="priozerskij_path" class="default-fill default-stroke"/><text xml:space="preserve" x="539.438" y="240.252" id="priozerskij_title" class="priozerskij-title default-title"><tspan id="tspan188" x="539.438" y="240.252">Приозерский</tspan></text></g><g id="g461"><path d="M580.5 422.5l7.5 3.5 6.5 4 3 7.5L621 439l5.5 5.5 11.5-.5 5 8h11.5l5 8 1 5.5 8.5 6.5 3.5-1 1.5 4.5h3l2 3 .5 6 6.5 9-3.5 5.5-2 23.5 2.5 6v6l-3 1.5 1 3 10.5 4 11 12 8 4.5 9 1 5.5 5.5 1.5 5.5-3 3-7.5 1-8 8-4-3-9.5 1-2.5 7h-6.5l-4.5 5-4 2 3.5 5v9L676 613l-10.5-7.5-6.5 5-14-5.5-7 6.5-5-1.5-1.5-7-3-7.5 8-11 .5-6.5 2-6-5-5 4-8-16.5-.5L613 581l4 7.5v4.5l-9 1-11.5-12.5 4.5-6 2-14 5.5-9-12-2.5-1.5-5.5h-14.5l-5-4.5-9.5-1-5-5-9 .5-13-3.5v-10.5l-12.5-7 15-5 51 24L621 531l13-14v-4.5l-9.5-8 6-6.5-.5-2.5-42.5-9-11-28.5 2-16-1.5-3-16-9.5-36.5-9.5-5.5-.5-24 9.5-6.5-8 1-5 10.5-8.5h15l10.5-5.5 19 .5 9 4 8 8 8.5 2 10.5 6" id="saint_petersburg1" class="saint-petersburg-path" stroke="#000" stroke-width="1" stroke-linecap="butt" stroke-linejoin="miter" stroke-opacity="1"/><path d="M558 496l-15.5-20.5-20.5-4 8.5 11L543 493z" id="saint_petersburg2" class="saint-petersburg-path" stroke="#000" stroke-width="1" stroke-linecap="butt" stroke-linejoin="miter" stroke-opacity="1"/></g></svg>