<svg xmlns="http://www.w3.org/2000/svg" version="1.1" id="svg236" width="1200" height="849"><path d="M509 394.5l-14 7.5-9.5 10.5-5 8.5-3 6-3 5.5-8 6.5 5.5 4 3.5 6.5 1.5 11-5.5 6.5 10 10 9.5 4.5 11 3 11 1 10.5 3 9 5 11.5 12 40.5 7 13-15.5 12-17.5-2-3V470l8-9 1-10.5-11-19-10-15-9-11-20-10.5-11 5.5H551l-20.5-6-7 4h-7l-7.5-4" id="kirovskij" class="default-fill default-stroke" display="inline" stroke-miterlimit="4" stroke-dasharray="none"/><text xml:space="preserve" x="504.988" y="452.993" id="kirovskij_title" class="kirovskij-title default-title"><tspan id="tspan238" x="504.988" y="452.993">Кировский</tspan></text><path d="M466.5 439l5.5 4 3.5 6.5 1.5 11-5.5 6.5 10 10 9.5 4.5 11 3 11 1 10.5 3 9 5 11.5 12 40.5 7-2 10V545l1 7.5h-5l4 31.5 3.5 3.5-2.5 6.5-6 2.5-1 12-2.5 5-6.5 6.5-4.5 8.5-2.5 6.5-9.5 6.5-6.5 1h-7l-11.5-7-10-3h-2.5l-8 4-8 17-16-13-1-10-10-4-5.5 12-13.5-1 2-20 1-19-4-18-8.5-22-21.5-40 1-10 4-9V478l4.5-3 3.5-5 4-7.5 7.5-4 11.5 1 10-11.5z" id="tosnenskij" class="default-fill default-stroke" display="inline"/><text xml:space="preserve" x="468.005" y="554.014" id="tosnenskij_title" class="tosnenskij-title default-title"><tspan id="tspan234" x="468.005" y="554.014">Тосненский</tspan></text><path d="M466.5 439l8-6.5 6-11.5 5-8.5L495 402l14-7.5-6.5-5v-4l9-10V369l-1-2v-3.5L505 355l-1.5-4.5-1-6-1-17-8-3-4-6V315l-1-10-6-10v-10l-6-21-21 5.5-4.5 2.5-19 14.5-11 5-20.5-9.5-14.5-6-14-3.5 10 12.5 4.5 14v10l-1 3v5l-7.5 18.5 32.5 9.5-3 20 1 2 24 18-4.5 25.5 10.5 12z" id="vsevolozhskij" class="default-fill default-stroke" fill-rule="nonzero"/><text xml:space="preserve" x="388.052" y="336.96" id="vsevolozhskij_title" class="vsevolozhskij-title default-title"><tspan id="tspan192" x="388.052" y="336.96">Всеволожский</tspan></text><path d="M372 272.5l14 3.5 14.5 6 20.5 9.5 11-5 19-14.5 4.5-2.5 21-5.5-3-19.5-2.5-7.5-7.5-9.5-13-7-9-8.5-6-20-4-3.5v-4l1.5-1h5.5v-5l-2-12.5-4.5-7.5-8-4.5 3.5-12-1-6.5-6-5-8.5-11-9-11-17-19-20.5-2L337 68l-26.5-4.5v7l-1 2v12l4 24.5v40l-3 12.5-3.5 7.5-9.5 14v3l5 14 2 27.5 3 13 6 6h13l9.5-2h2.5l1 4.5v9z" id="priozerskij" class="default-fill default-stroke"/><text xml:space="preserve" x="320" y="190" id="priozerskij_title" class="priozerskij-title default-title"><tspan id="tspan188" x="320" y="190">Приозерский</tspan></text><path d="M310.5 63.5v7l-1 2v12l4 24.5v40l-3 12.5-3.5 7.5-9.5 14v3l5 14 2 27.5 3 13 6 6h13l9.5-2h2.5l1 4.5v9l32.5 14.5 10 12.5 4.5 14v10l-1 3v5l-7.5 18.5-69-25-5.5 1-8.5.5-16.5 9-8 21.5-35-4-18-7.5-3.5-9-4.5-5.5-6-4-8-12-6-6-2.5 2.5-.5 5-4-2-8-5.5L164 285l-4.5-12.5-1-2-9-12.5-2.5-6.5-3.5-8 11.5 8 12.5 12.5 11 3v-16.5l-15.5-14-6-11.5 6.5-4 14.5 5 6.5-10 1-9-5.5-10-30 14-38 34-7 4-11.5 3.5L81 251l-14-7.5h-6l-3.5 3.5-2.5 10-2 2-24-.5-.5-4 3-10 5-9 3 1.5L56 215.5 72 203l73.5-70.5 11-.5 10-1.5 10-6.5v-3l-1.5-6 8.5-16 12-12.5 13-9L235 64l28-31 9 7 15 8 8 2.5 4 11 4.5 2z" id="vyborgskij" class="default-fill default-stroke" display="inline"/><text xml:space="preserve" x="193.944" y="227.864" id="vyborgskij_title" class="vyborgskij-title default-title"><tspan id="tspan184" x="193.944" y="227.864">Выборгский</tspan></text><path d="M425.5 478v21.5l-4 9-1 10 21.5 40 8.5 22 4 18-1 19-2 20-5.5 4.5h-6l-2-.5-.5-3-1.5-1h-11.5l-3 .5-12.5 11-16-2.5-10-3.5-2.5-1-9.5-20-9.5-20-16-2.5-4-16-43-2.5 5-12.5 15-24 1-10V519l-1-13.5.5-12 2.5-14L341 474l11.5-5 13-9 13 12.5 14 7.5 15 2.5z" id="gatchinskij" class="default-fill default-stroke"/><text xml:space="preserve" x="333.991" y="553.991" id="gatchinskij_title" class="gatchinskij-title default-title"><tspan id="tspan210" x="333.991" y="553.991">Гатчинский</tspan></text><path d="M321.5 479.5L341 474l11.5-5 13-9-14.5-17.5-15.5-13V425l-9.5-.5-7-4-8-6 1-2.5-.5-3.5 1-4-17-6L262 391l-14.5-6-8.5 2.5-15.5 10-4 23L212 431l-13 5.5-3.5 7v2.5l2 3.5 2 7.5v4l10 15 9 3.5h6.5l2-1h7.5l14-3h9l3 1h24l12-7H308z" id="lomonosovskij" class="default-fill default-stroke"/><text xml:space="preserve" x="218.028" y="450.998" id="lomonosovskij_title" class="lomonosovskij-title default-title"><tspan id="tspan214" x="218.028" y="450.998">Ломоносовский</tspan></text><path d="M234.5 478.5l1.5 5.5-6.5 17.5-5 17L222 532l-.5 11.5-1 3 1 3.5v12l4 18 .5 6.5.5 8.5-1.5 2.5h-9l-13-3-3.5 5 3 6.5 8.5-.5 6 1 7 6-1.5 7.5-2.5 8 35 12 13.5 3 9.5-11.5 17-2 4-5 5-1 7.5 1 8-17.5-6.5-8-14.5-5.5V581l5-12.5 15-24 1-10V519l-1-13.5.5-12 2.5-14-13.5-10h-11.5l-12 7h-24l-3-1h-9z" id="volosovskij" class="default-fill default-stroke"/><text xml:space="preserve" x="222.019" y="542.019" id="volosovskij_title" class="volosovskij-title default-title"><tspan id="tspan218" x="222.019" y="542.019">Волосовский</tspan></text><path d="M195.5 443.5H191l-6-3-1.5 1.5v5l-3 2.5-20-16-9.5-10-11 11-9 41h-4l-14-4.5-7.5-4.5-1-3.5v-6.5l-1-2V451l-4-6-6-.5-7 5.5-6 8.5-2 5.5-2.5 5 12 21-.5 17.5-1 2v3.5l-5 11 8 8.5L96 541l6 15v3.5l-3.5 7 10.5 5 17.5 5 16 5 10 8 1 5.5v9.5l-1 2v8l-1 1.5v3.5l4.5 7h4l2.5-1 2.5-.5 5.5-4 7-11 16.5 9.5 8.5-4.5v-9l-3-6.5 3.5-5 13 3h9l1.5-2.5-1-15-4-18v-12l-1-3.5 1-3 .5-11.5 2.5-13.5 5-17L236 484l-1.5-5.5H227l-2 1h-6.5l-9-3.5-10-15v-4l-2-7.5-2-3.5z" id="kingiseppskij" class="default-fill default-stroke"/><text xml:space="preserve" x="100" y="520" id="kingiseppskij_title" class="kingiseppskij-title default-title"><tspan id="tspan222" x="100" y="520">Кингисеппский</tspan></text><path d="M98.5 566.5l10.5 5 33.5 10 10 8 1 5.5v9.5l-1 2v8l-1 1.5v3.5l4.5 7h4l2.5-1 2.5-.5 5.5-4 7-11 16.5 9.5 8.5-4.5v-9l8.5-.5 6 1 7 6-4 15.5-2 4.5-4.5 23-10.5 8-7.5 1h-13l-8.5 3-8.5 10.5-1 15-27.5-6-9.5 1-13 5.5-7.5-8.5-9.5-19L79 655l-16-3.5-17.5 6-7 8-2.5 1-5-5-1.5-5 9-14.5 12-16 1-3.5 1-20.5 5-11 11-13.5H76l12-3z" id="slancevskij" class="default-fill default-stroke" display="inline"/><text xml:space="preserve" x="75.962" y="640.974" id="slancevskij_title" class="slancevskij-title default-title"><tspan id="tspan226" x="75.962" y="640.974">Сланцевский</tspan></text><path d="M164.5 693l1-15 8.5-10.5 8.5-3h13l7.5-1 10.5-8 4.5-23 2-4.5 35 12 13.5 3 9.5-11.5 17-2 4-5 5-1 7.5 1 8-17.5-6.5-8-14.5-5.5V581l43 2.5 4 16 16 2.5 19 40 12.5 4.5 16 2.5 12.5-11 3-.5H436l1.5 1 .5 3 2 .5h6l5.5-4.5 13.5 1 5.5-12 10 4 1 10 16 13v8l-10.5 12-13 9.5-6.5 4-.5 5.5-.5 16.5-11.5 8-11.5.5-12.5-2-12 11.5-3-.5-12-4-16.5-9-4.5-1.5-7 10 .5 4.5 3.5 5-7.5 12L374 755l5.5 6.5v18L376 790l-7.5 6-7-5H348l-19.5 6.5-8 1-14-7-8.5-6.5-3-12.5-2.5-3-8.5-1-19-6-12.5-10.5 2-7.5-2.5-8-10-9.5-15-12.5-10.5-10.5-2.5-1.5-16.5-1.5-29.5-6.5z" id="luzhskij" class="default-fill default-stroke"/><text xml:space="preserve" x="296.937" y="690" id="luzhskij_title" class="luzhskij-title default-title"><tspan id="tspan230" x="296.937" y="690">Лужский</tspan></text><path d="M583.5 552.5l-1-7.5v-22.5l2-10 13-15.5 12-17.5-2-3V470l8-9 1-10.5 16.5 1h13l2-1 2 1h14.5l15 6.5v11l5.5 2 12.5-5 2 1 7 19.5 17 2h9.5l5 1 9.5 1 8.5 3 6.5 4v6.5l-6.5 7 9.5 15.5 12 14 10 10.5-27 22-4 9.5v8.5l5 13.5-5.5 12-9 8-9.5 2-5-5.5-5.5-.5-23.5-14-10-11-1-2.5v-6.5l-3-14.5-17.5-14-19.5-11.5-17.5-4-2.5 5-2 8.5-2 12-10.5 2.5-8-4-8.5-10.5z" id="kirishskij" class="default-fill default-stroke"/><text xml:space="preserve" x="646.96" y="524.988" id="kirishskij_title" class="kirishskij-title default-title"><tspan id="tspan242" x="646.96" y="524.988">Киришский</tspan></text><path d="M566.5 395l20 10.5 9 11 10 15 11 19 16.5 1h13l2-1 2 1h14.5l15 6.5v11l5.5 2 12.5-5 2 1 7 19.5 17 2h9.5l5 1 4.5-8.5 4.5-16 27-14 16-9.5 15-12.5 8.5-14v-27.5l-13-46 10-11 10 3 10 11.5 14.5 4.5 26.5 3h6.5l15.5-17.5-2-18-5.5-10-9-7-5-13-4.5-7-5-4.5-5.5-2-19.5-2-16.5-3-14.5-4-19-7.5-17-10-4 9-4.5-2-3-8.5.5-4-5.5-3.5-22-8.5-3.5 8 4 4.5 1.5 6-.5 9 13 16v5.5L740 282l-7.5-1.5-4.5-3-3 3 7 12.5-.5 5 3.5 5.5 1.5 1-3 15.5-10.5 10.5-12 5-9.5 1H686l-9.5-2-16-16 1-2v-6l-4.5-4-4 10-26.5-8.5-9-1.5h-7l-8 2-14 16.5-10.5 8-.5 5.5 1 2v4l-8 10-1 5.5-1 6.5v18l1 4.5z" id="volhovskij" class="default-stroke default-fill"/><text xml:space="preserve" x="655.974" y="383.005" id="volhovskij_title" class="volhovskij-title default-title"><tspan id="tspan249" x="655.974" y="383.005">Волховский</tspan></text><path d="M787.5 551l-10-10.5-12-14L756 511l6.5-7v-6.5l-6.5-4-8.5-3-9.5-1 4.5-8.5 4.5-16 27-14 16-9.5 15-12.5 8.5-14v-27.5l-13-46 10-11 10 3 10 11.5 14.5 4.5 26.5 3h6.5l15.5-17.5 13 6.5H956l35.5-2 18.5-1 5.5-10.5-3-9.5 9-9 10-2 11.5-.5 18.5 11.5 10.5 1h26.5l-4 17.5 13 11v8.5l-9.5 6-5.5-2.5-3.5-16-6-9.5h-5.5l-3 1.5 1 3 6 11.5 2 11-1.5 1h-8l-3.5 2 .5 1.5 4.5 6v10l-1 2.5v3l-4 11.5-14.5 11-11 10.5-12.5 5.5-9 9.5-5 22-6.5 9.5-14-6.5-13-2h-18.5l-11.5-2-11.5-7-4-11-11.5-4-10 1.5-1.5.5-9 10V465l-7 6-4 1.5H889l-8.5 11 4 14 13 17-4.5 9.5-8.5 9-3.5 15.5-10 5.5-11.5.5-8.5-1.5-2 1-5.5 8-9.5 6.5-17-12.5-10.5-9.5-9-10.5z" id="tihvinskij" class="default-fill default-stroke"/><text xml:space="preserve" x="875.939" y="403.016" id="tihvinskij_title" class="tihvinskij-title default-title"><tspan id="tspan254" x="875.939" y="403.016">Тихвинский</tspan></text><path d="M881 548.5l3.5-15.5 8.5-9 4.5-9.5-13-17-4-14 8.5-11h7.5l4-1.5 7-6v-18.5l9-10 1.5-.5 10-1.5 11.5 4 4 11 11.5 7 11.5 2H985l13 2 14 6.5 6.5-9.5 5-22 9-9.5 12.5-5.5 11-10.5 14.5-11 4-11.5v-3l1-2.5v-10l-4.5-6-.5-1.5 3.5-2h8l1.5-1-2-11-6-11.5-1-3 3-1.5h5.5l6 9.5 3.5 16 5.5 2.5 16 7.5 13.5 7.5h9l2 1h2.5l5.5 5-8.5 10.5-2 14.5V431l4.5 18 23 3.5 3.5 2.5 2 16-.5 3.5-14.5-7-1.5 2 1 23-11 15-7 6v2.5l9.5 12-11.5 13.5v9l-4 12H1111l-10.5 13.5-12-2-3 1.5-7 8-8.5-8.5h-6.5l-16.5 20-1.5 12.5-2.5 3.5 1.5 6.5-9.5 5.5-33.5-15.5-20-6-6.5-1-5 1h-5l-9 5.5-5 12.5-5-2.5-4.5-3-11-10.5-1-1L919 600l-6.5-3.5-8.5-20-11.5-16.5z" id="boksitogorskij" class="baksitogorskij default-fill default-stroke"/><text xml:space="preserve" x="962.969" y="511.021" id="boksitogorskij_title" class="baksitogorskij-title default-title"><tspan id="tspan259" x="962.969" y="511.021">Бокситогорский</tspan></text><path d="M770.5 247l17 10 19 7.5 14.5 4 16.5 3 19.5 2 5.5 2 5 4.5 4.5 7 5 13 9 7 5.5 10 2 18 13 6.5H956l54-3 5.5-10.5-3-9.5 9-9 10-2 11.5-.5-6-5.5-17.5-22-14-8.5-14-16-5-22.5h4l4-4 1.5-4.5-16-5.5 1.5-14-13-9-13.5-2-12.5-10.5-19-8.5-4.5-9.5-2.5-2-6.5-4-3.5-1.5v-5l5-14-2.5-5-9.5-6.5-13.5-1.5-23.5-13H852l-.5 10L836 131l-11 10-13.5 16-2 3-.5 9-11.5 8-13.5 2.5-11 5.5 3.5 2.5 3.5 2.5 5 8-7.5 27z" id="lodejnopolskij" class="lodejnopolskij default-fill default-stroke"/><text xml:space="preserve" x="833.459" y="235.986" id="lodejnopolskij_title" class="lodejnopolskij-title default-title"><tspan id="tspan264" x="833.459" y="235.986">Лодейнопольский</tspan></text><path d="M899.5 127l9.5 6.5 2.5 5-5 14v5l10 5.5 2.5 2 4.5 9.5 19 8.5 12.5 10.5 13.5 2 13 9-1.5 14 16 5.5-1.5 4.5-4 4h-4l5 22.5 14 16 14 8.5 17.5 22 6 5.5 18.5 11.5 10.5 1h26.5V306l8-12.5 6-20 3.5-18 5.5-19v-18l-3.5-15-4-12-10.5-23.5v-1l14-14 12.5-4 15 4.5h1l10.5-14.5 2-9.5-9-8v-4l-1-2.5 10-10 7.5-6 6-8.5 5-19.5-13-15.5h-8.5L1145 70l-4.5-1-17-10v-7.5l4-14-3.5-4.5-12 7.5-14.5 4h-11l-14-9.5-18.5-7.5-15-3-14 10-11.5 6.5-11.5 12-3.5 20.5h-5l-12-14L966 47l-15 .5-55-4-28.5 12L855 64l6.5 11L880 89l11.5-5.5 11.5-2 12.5 5.5v6.5l-8 14.5z" id="podporizhskij" class="podporozhskij default-fill default-stroke"/><text xml:space="preserve" x="971.355" y="139.1" id="podporizhskij_title" class="podporozhskij-title default-title"><tspan id="tspan269" x="971.355" y="139.1">Подпорожский</tspan></text></svg>