<?xml version="1.0" encoding="UTF-8" standalone="no"?>
<svg
   xmlns:dc="http://purl.org/dc/elements/1.1/"
   xmlns:cc="http://creativecommons.org/ns#"
   xmlns:rdf="http://www.w3.org/1999/02/22-rdf-syntax-ns#"
   xmlns:svg="http://www.w3.org/2000/svg"
   xmlns="http://www.w3.org/2000/svg"
   xmlns:sodipodi="http://sodipodi.sourceforge.net/DTD/sodipodi-0.dtd"
   xmlns:inkscape="http://www.inkscape.org/namespaces/inkscape"
   version="1.1"
   id="svg236"
   width="1200"
   height="849"
   viewBox="0 0 1200 849"
   sodipodi:docname="lo-map_v1.svg"
   inkscape:version="1.0.1 (3bc2e813f5, 2020-09-07)">
  <style
     id="style172">
.default-title { 
    fill:#000000;
    fill-opacity:1;
    font-family:sans-serif;
    font-size:15px;
    font-style:normal;
    font-weight:normal;
    line-height:1.25;
    stroke:none;
}
.default-fill { fill:#f6ffaa;    fill-opacity:1; }
.default-stroke { stroke:#000000;    stroke-linecap:butt;    stroke-linejoin:miter;    stroke-opacity:1;    stroke-width:1px; }
</style>
  <metadata
     id="metadata242">
    <rdf:RDF>
      <cc:Work
         rdf:about="">
        <dc:format>image/svg+xml</dc:format>
        <dc:type
           rdf:resource="http://purl.org/dc/dcmitype/StillImage" />
        <dc:title></dc:title>
      </cc:Work>
    </rdf:RDF>
  </metadata>
  <defs
     id="defs240" />
  <sodipodi:namedview
     pagecolor="#ffffff"
     bordercolor="#666666"
     borderopacity="1"
     objecttolerance="10"
     gridtolerance="10"
     guidetolerance="10"
     inkscape:pageopacity="0"
     inkscape:pageshadow="2"
     inkscape:window-width="1858"
     inkscape:window-height="1057"
     id="namedview238"
     showgrid="true"
     inkscape:zoom="1.0023557"
     inkscape:cx="577.93906"
     inkscape:cy="430.73232"
     inkscape:window-x="54"
     inkscape:window-y="-8"
     inkscape:window-maximized="1"
     inkscape:current-layer="svg236"
     inkscape:document-rotation="0">
    <inkscape:grid
       type="xygrid"
       id="grid249"
       spacingx="0.5"
       spacingy="0.5"
       dotted="false" />
  </sodipodi:namedview>
  <path
     style="display:inline;stroke-miterlimit:4;stroke-dasharray:none"
     d="m 509,394.5 -14,7.5 -9.5,10.5 -5,8.5 -3,6 -3,5.5 -8,6.5 5.5,4 3.5,6.5 1.5,11 -5.5,6.5 10,10 9.5,4.5 11,3 11,1 10.5,3 9,5 11.5,12 40.5,7 13,-15.5 12,-17.5 -2,-3 V 470 l 8,-9 1,-10.5 -11,-19 -10,-15 -9,-11 -20,-10.5 -11,5.5 H 551 l -20.5,-6 -7,4 h -7 l -7.5,-4"
     id="kirovskij"
     sodipodi:nodetypes="ccccccccccccccccccccccccccccccccccc"
     inkscape:label="kirovskij"
     class="default-fill  default-stroke">
    <title
       id="title211">kirovskij</title>
  </path>
  <text
     xml:space="preserve"
     x="504.98825"
     y="452.99295"
     id="kirovskij_title"
     class="kirovskij-title  default-title"
     inkscape:label="kirovskij_title"><title
       id="title178">kirovskij_title</title><tspan
       sodipodi:role="line"
       id="tspan238"
       x="504.98825"
       y="452.99295">Кировский</tspan></text>
  <path
     style="display:inline"
     d="m 466.5,439 5.5,4 3.5,6.5 1.5,11 -5.5,6.5 10,10 9.5,4.5 11,3 11,1 10.5,3 9,5 11.5,12 40.5,7 -2,10 V 545 l 1,7.5 h -5 l 4,31.5 3.5,3.5 -2.5,6.5 -6,2.5 -1,12 -2.5,5 -6.5,6.5 -4.5,8.5 -2.5,6.5 -9.5,6.5 -6.5,1 h -7 l -11.5,-7 -10,-3 h -2.5 l -8,4 -8,17 -16,-13 -1,-10 -10,-4 -5.5,12 -13.5,-1 2,-20 1,-19 -4,-18 -8.5,-22 -21.5,-40 1,-10 4,-9 V 478 l 4.5,-3 3.5,-5 4,-7.5 7.5,-4 11.5,1 10,-11.5 z"
     id="tosnenskij"
     sodipodi:nodetypes="cccccccccccccccccccccccccccccccccccccccccccccccccccccc"
     class="default-fill  default-stroke"
     inkscape:label="tosnenskij">
    <title
       id="title213">tosnenskij</title>
  </path>
  <text
     xml:space="preserve"
     x="468.0047"
     y="554.0141"
     id="tosnenskij_title"
     class="tosnenskij-title  default-title"
     inkscape:label="tosnenskij_title"><title
       id="title180">tosnenskij_title</title><tspan
       sodipodi:role="line"
       id="tspan234"
       x="468.0047"
       y="554.0141">Тосненский</tspan></text>
  <path
     style="fill-rule:nonzero"
     d="m 466.5,439 8,-6.5 6,-11.5 5,-8.5 9.5,-10.5 14,-7.5 -6.5,-5 v -4 l 9,-10 V 369 l -1,-2 v -3.5 l -5.5,-8.5 -1.5,-4.5 -1,-6 -1,-17 -8,-3 -4,-6 V 315 l -1,-10 -6,-10 v -10 l -6,-21 -21,5.5 -4.5,2.5 -19,14.5 -11,5 -20.5,-9.5 -14.5,-6 -14,-3.5 10,12.5 4.5,14 v 10 l -1,3 v 5 l -7.5,18.5 32.5,9.5 -3,20 1,2 24,18 -4.5,25.5 10.5,12 z"
     id="vsevolozhskij"
     class="default-fill  default-stroke"
     inkscape:label="vsevolozhskij">
    <title
       id="title215">vsevolozhskij</title>
  </path>
  <text
     xml:space="preserve"
     x="388.0517"
     y="336.96005"
     id="vsevolozhskij_title"
     class="vsevolozhskij-title  default-title"
     inkscape:label="vsevolozhskij_title"><title
       id="title182">vsevolozhskij_title</title><tspan
       sodipodi:role="line"
       id="tspan192"
       x="388.0517"
       y="336.96005">Всеволожский</tspan></text>
  <path
     d="m 372,272.5 14,3.5 14.5,6 20.5,9.5 11,-5 19,-14.5 4.5,-2.5 21,-5.5 -3,-19.5 -2.5,-7.5 -7.5,-9.5 -13,-7 -9,-8.5 -6,-20 -4,-3.5 v -4 l 1.5,-1 h 5.5 v -5 l -2,-12.5 -4.5,-7.5 -8,-4.5 3.5,-12 -1,-6.5 -6,-5 -8.5,-11 -9,-11 -17,-19 -20.5,-2 L 337,68 310.5,63.5 v 7 l -1,2 v 12 l 4,24.5 v 40 l -3,12.5 -3.5,7.5 -9.5,14 v 3 l 5,14 2,27.5 3,13 6,6 h 13 l 9.5,-2 h 2.5 l 1,4.5 v 9 z"
     id="priozerskij"
     class="default-fill  default-stroke"
     inkscape:label="priozerskij">
    <title
       id="title217">priozerskij</title>
  </path>
  <text
     xml:space="preserve"
     x="320"
     y="190"
     id="priozerskij_title"
     class="priozerskij-title  default-title"
     inkscape:label="priozerskij_title"><title
       id="title184">priozerskij_title</title><tspan
       sodipodi:role="line"
       id="tspan188"
       x="320"
       y="190">Приозерский</tspan></text>
  <path
     style="display:inline"
     d="m 310.5,63.5 v 7 l -1,2 v 12 l 4,24.5 v 40 l -3,12.5 -3.5,7.5 -9.5,14 v 3 l 5,14 2,27.5 3,13 6,6 h 13 l 9.5,-2 h 2.5 l 1,4.5 v 9 l 32.5,14.5 10,12.5 4.5,14 v 10 l -1,3 v 5 l -7.5,18.5 -69,-25 -5.5,1 -8.5,0.5 -16.5,9 -8,21.5 -35,-4 -18,-7.5 -3.5,-9 -4.5,-5.5 -6,-4 -8,-12 -6,-6 -2.5,2.5 -0.5,5 -4,-2 -8,-5.5 -10.5,-9.5 -4.5,-12.5 -1,-2 -9,-12.5 -2.5,-6.5 -3.5,-8 11.5,8 12.5,12.5 11,3 v -16.5 l -15.5,-14 -6,-11.5 6.5,-4 14.5,5 6.5,-10 1,-9 -5.5,-10 -30,14 -38,34 -7,4 -11.5,3.5 L 81,251 67,243.5 h -6 l -3.5,3.5 -2.5,10 -2,2 -24,-0.5 -0.5,-4 3,-10 5,-9 3,1.5 16.5,-21.5 16,-12.5 73.5,-70.5 11,-0.5 10,-1.5 10,-6.5 v -3 l -1.5,-6 8.5,-16 12,-12.5 13,-9 26.5,-13.5 28,-31 9,7 15,8 8,2.5 4,11 4.5,2 z"
     id="vyborgskij"
     class="default-fill  default-stroke"
     inkscape:label="vyborgskij">
    <title
       id="title219">vyborgskij</title>
  </path>
  <text
     xml:space="preserve"
     x="193.9436"
     y="227.86369"
     id="vyborgskij_title"
     class="vyborgskij-title  default-title"
     inkscape:label="vyborgskij_title"><title
       id="title187">vyborgskij_title</title><tspan
       sodipodi:role="line"
       id="tspan184"
       x="193.9436"
       y="227.86369">Выборгский</tspan></text>
  <path
     d="m 425.5,478 v 21.5 l -4,9 -1,10 21.5,40 8.5,22 4,18 -1,19 -2,20 -5.5,4.5 h -6 l -2,-0.5 -0.5,-3 -1.5,-1 h -11.5 l -3,0.5 -12.5,11 -16,-2.5 -10,-3.5 -2.5,-1 -9.5,-20 -9.5,-20 -16,-2.5 -4,-16 -43,-2.5 5,-12.5 15,-24 1,-10 V 519 l -1,-13.5 0.5,-12 2.5,-14 19.5,-5.5 11.5,-5 13,-9 13,12.5 14,7.5 15,2.5 z"
     id="gatchinskij"
     class="default-fill  default-stroke"
     inkscape:label="gatchinskij">
    <title
       id="title221">gatchinskij</title>
  </path>
  <text
     xml:space="preserve"
     x="333.9906"
     y="553.9906"
     id="gatchinskij_title"
     class="gatchinskij-title  default-title"
     inkscape:label="gatchinskij_title"><title
       id="title195">gatchinskij_title</title><tspan
       sodipodi:role="line"
       id="tspan210"
       x="333.9906"
       y="553.9906">Гатчинский</tspan></text>
  <path
     d="m 321.5,479.5 19.5,-5.5 11.5,-5 13,-9 -14.5,-17.5 -15.5,-13 V 425 l -9.5,-0.5 -7,-4 -8,-6 1,-2.5 -0.5,-3.5 1,-4 -17,-6 -33.5,-7.5 -14.5,-6 -8.5,2.5 -15.5,10 -4,23 -7.5,10.5 -13,5.5 -3.5,7 v 2.5 l 2,3.5 2,7.5 v 4 l 10,15 9,3.5 h 6.5 l 2,-1 h 7.5 l 14,-3 h 9 l 3,1 h 24 l 12,-7 H 308 Z"
     id="lomonosovskij"
     class="default-fill  default-stroke"
     inkscape:label="lomonosovskij">
    <title
       id="title223">lomonosovskij</title>
  </path>
  <text
     xml:space="preserve"
     x="218.0282"
     y="450.99765"
     id="lomonosovskij_title"
     class="lomonosovskij-title  default-title"
     inkscape:label="lomonosovskij_title"><title
       id="title189">lomonosovskij_title</title><tspan
       sodipodi:role="line"
       id="tspan214"
       x="218.0282"
       y="450.99765">Ломоносовский</tspan></text>
  <path
     d="m 234.5,478.5 1.5,5.5 -6.5,17.5 -5,17 -2.5,13.5 -0.5,11.5 -1,3 1,3.5 v 12 l 4,18 0.5,6.5 0.5,8.5 -1.5,2.5 h -9 l -13,-3 -3.5,5 3,6.5 8.5,-0.5 6,1 7,6 -1.5,7.5 -2.5,8 35,12 13.5,3 9.5,-11.5 17,-2 4,-5 5,-1 7.5,1 8,-17.5 -6.5,-8 -14.5,-5.5 V 581 l 5,-12.5 15,-24 1,-10 V 519 l -1,-13.5 0.5,-12 2.5,-14 -13.5,-10 h -11.5 l -12,7 h -24 l -3,-1 h -9 z"
     id="volosovskij"
     sodipodi:nodetypes="ccccccccccccccccccccccccccccccccccccccccccccccc"
     class="default-fill  default-stroke"
     inkscape:label="volosovskij">
    <title
       id="title225">volosovskij</title>
  </path>
  <text
     xml:space="preserve"
     x="222.0188"
     y="542.0188"
     id="volosovskij_title"
     class="volosovskij-title  default-title"
     inkscape:label="volosovskij_title"><title
       id="title193">volosovskij_title</title><tspan
       sodipodi:role="line"
       id="tspan218"
       x="222.0188"
       y="542.0188">Волосовский</tspan></text>
  <path
     d="M 195.5,443.5 H 191 l -6,-3 -1.5,1.5 v 5 l -3,2.5 -20,-16 -9.5,-10 -11,11 -9,41 h -4 l -14,-4.5 -7.5,-4.5 -1,-3.5 v -6.5 l -1,-2 V 451 l -4,-6 -6,-0.5 -7,5.5 -6,8.5 -2,5.5 -2.5,5 12,21 -0.5,17.5 -1,2 v 3.5 l -5,11 8,8.5 6.5,8.5 6,15 v 3.5 l -3.5,7 10.5,5 17.5,5 16,5 10,8 1,5.5 v 9.5 l -1,2 v 8 l -1,1.5 v 3.5 l 4.5,7 h 4 l 2.5,-1 2.5,-0.5 5.5,-4 7,-11 16.5,9.5 8.5,-4.5 v -9 l -3,-6.5 3.5,-5 13,3 h 9 l 1.5,-2.5 -1,-15 -4,-18 v -12 l -1,-3.5 1,-3 0.5,-11.5 2.5,-13.5 5,-17 6.5,-17.5 -1.5,-5.5 H 227 l -2,1 h -6.5 l -9,-3.5 -10,-15 v -4 l -2,-7.5 -2,-3.5 z"
     id="kingiseppskij"
     class="default-fill  default-stroke"
     inkscape:label="kingiseppskij">
    <title
       id="title227">kingiseppskij</title>
  </path>
  <text
     xml:space="preserve"
     x="100"
     y="520"
     id="kingiseppskij_title"
     class="kingiseppskij-title  default-title"
     inkscape:label="kingiseppskij_title"><title
       id="title191">kingiseppskij_title</title><tspan
       sodipodi:role="line"
       id="tspan222"
       x="100"
       y="520">Кингисеппский</tspan></text>
  <path
     style="display:inline"
     d="m 98.5,566.5 10.5,5 33.5,10 10,8 1,5.5 v 9.5 l -1,2 v 8 l -1,1.5 v 3.5 l 4.5,7 h 4 l 2.5,-1 2.5,-0.5 5.5,-4 7,-11 16.5,9.5 8.5,-4.5 v -9 l 8.5,-0.5 6,1 7,6 -4,15.5 -2,4.5 -4.5,23 -10.5,8 -7.5,1 h -13 l -8.5,3 -8.5,10.5 -1,15 -27.5,-6 -9.5,1 -13,5.5 L 107,685 97.5,666 79,655 l -16,-3.5 -17.5,6 -7,8 -2.5,1 -5,-5 -1.5,-5 9,-14.5 12,-16 1,-3.5 1,-20.5 5,-11 11,-13.5 H 76 l 12,-3 z"
     id="slancevskij"
     class="default-fill  default-stroke"
     inkscape:label="slancevskij">
    <title
       id="title229">slancevskij</title>
  </path>
  <text
     xml:space="preserve"
     x="75.962395"
     y="640.97412"
     id="slancevskij_title"
     class="slancevskij-title  default-title"
     inkscape:label="slancevskij_title"><title
       id="title199">slancevskij_title</title><tspan
       sodipodi:role="line"
       id="tspan226"
       x="75.962395"
       y="640.97412">Сланцевский</tspan></text>
  <path
     d="m 164.5,693 1,-15 8.5,-10.5 8.5,-3 h 13 l 7.5,-1 10.5,-8 4.5,-23 2,-4.5 35,12 13.5,3 9.5,-11.5 17,-2 4,-5 5,-1 7.5,1 8,-17.5 -6.5,-8 -14.5,-5.5 V 581 l 43,2.5 4,16 16,2.5 19,40 12.5,4.5 16,2.5 12.5,-11 3,-0.5 H 436 l 1.5,1 0.5,3 2,0.5 h 6 l 5.5,-4.5 13.5,1 5.5,-12 10,4 1,10 16,13 v 8 l -10.5,12 -13,9.5 -6.5,4 -0.5,5.5 -0.5,16.5 -11.5,8 -11.5,0.5 -12.5,-2 -12,11.5 -3,-0.5 -12,-4 -16.5,-9 -4.5,-1.5 -7,10 0.5,4.5 3.5,5 -7.5,12 1.5,11.5 5.5,6.5 v 18 l -3.5,10.5 -7.5,6 -7,-5 H 348 l -19.5,6.5 -8,1 -14,-7 -8.5,-6.5 -3,-12.5 -2.5,-3 -8.5,-1 -19,-6 -12.5,-10.5 2,-7.5 -2.5,-8 L 242,727 227,714.5 216.5,704 214,702.5 197.5,701 168,694.5 Z"
     id="luzhskij"
     class="default-fill  default-stroke"
     inkscape:label="luzhskij">
    <title
       id="title231">luzhskij</title>
  </path>
  <text
     xml:space="preserve"
     x="296.93655"
     y="690"
     id="luzhskij_title"
     class="luzhskij-title  default-title"
     inkscape:label="luzhskij_title"><title
       id="title197">luzhskij_title</title><tspan
       sodipodi:role="line"
       id="tspan230"
       x="296.93655"
       y="690">Лужский</tspan></text>
  <path
     d="m 583.5,552.5 -1,-7.5 v -22.5 l 2,-10 13,-15.5 12,-17.5 -2,-3 V 470 l 8,-9 1,-10.5 16.5,1 h 13 l 2,-1 2,1 h 14.5 l 15,6.5 v 11 l 5.5,2 12.5,-5 2,1 7,19.5 17,2 h 9.5 l 5,1 9.5,1 8.5,3 6.5,4 v 6.5 l -6.5,7 9.5,15.5 12,14 10,10.5 -27,22 -4,9.5 v 8.5 l 5,13.5 -5.5,12 -9,8 -9.5,2 -5,-5.5 -5.5,-0.5 -23.5,-14 -10,-11 -1,-2.5 v -6.5 l -3,-14.5 -17.5,-14 -19.5,-11.5 -17.5,-4 -2.5,5 -2,8.5 -2,12 -10.5,2.5 -8,-4 -8.5,-10.5 z"
     id="kirishskij"
     class="default-fill  default-stroke"
     inkscape:label="kirishskij">
    <title
       id="title233">kirishskij</title>
  </path>
  <text
     xml:space="preserve"
     x="646.96002"
     y="524.98822"
     id="kirishskij_title"
     class="kirishskij-title  default-title"
     inkscape:label="kirishskij_title"><title
       id="title203">kirishskij_title</title><tspan
       sodipodi:role="line"
       id="tspan242"
       x="646.96002"
       y="524.98822">Киришский</tspan></text>
  <path
     d="m 566.5,395 20,10.5 9,11 10,15 11,19 16.5,1 h 13 l 2,-1 2,1 h 14.5 l 15,6.5 v 11 l 5.5,2 12.5,-5 2,1 7,19.5 17,2 h 9.5 l 5,1 4.5,-8.5 4.5,-16 27,-14 16,-9.5 15,-12.5 8.5,-14 v -27.5 l -13,-46 10,-11 10,3 10,11.5 14.5,4.5 26.5,3 h 6.5 l 15.5,-17.5 -2,-18 -5.5,-10 -9,-7 -5,-13 -4.5,-7 -5,-4.5 -5.5,-2 -19.5,-2 -16.5,-3 -14.5,-4 -19,-7.5 -17,-10 -4,9 -4.5,-2 -3,-8.5 0.5,-4 -5.5,-3.5 -22,-8.5 -3.5,8 4,4.5 1.5,6 -0.5,9 13,16 v 5.5 l -6.5,3.5 -7.5,-1.5 -4.5,-3 -3,3 7,12.5 -0.5,5 3.5,5.5 1.5,1 -3,15.5 -10.5,10.5 -12,5 -9.5,1 H 686 l -9.5,-2 -16,-16 1,-2 v -6 l -4.5,-4 -4,10 -26.5,-8.5 -9,-1.5 h -7 l -8,2 -14,16.5 -10.5,8 -0.5,5.5 1,2 v 4 l -8,10 -1,5.5 -1,6.5 v 18 l 1,4.5 z"
     id="volhovskij"
     class="default-stroke  default-fill"
     inkscape:label="volhovskij">
    <title
       id="title188">volhovskij</title>
  </path>
  <text
     xml:space="preserve"
     x="655.97412"
     y="383.0047"
     id="volhovskij_title"
     class="volhovskij-title  default-title"
     inkscape:label="volhovskij_title"><title
       id="title205">volhovskij_title</title><tspan
       sodipodi:role="line"
       id="tspan249"
       x="655.97412"
       y="383.0047">Волховский</tspan></text>
  <path
     d="m 787.5,551 -10,-10.5 -12,-14 -9.5,-15.5 6.5,-7 v -6.5 l -6.5,-4 -8.5,-3 -9.5,-1 4.5,-8.5 4.5,-16 27,-14 16,-9.5 15,-12.5 8.5,-14 v -27.5 l -13,-46 10,-11 10,3 10,11.5 14.5,4.5 26.5,3 h 6.5 l 15.5,-17.5 13,6.5 H 956 l 35.5,-2 18.5,-1 5.5,-10.5 -3,-9.5 9,-9 10,-2 11.5,-0.5 18.5,11.5 10.5,1 h 26.5 l -4,17.5 13,11 v 8.5 l -9.5,6 -5.5,-2.5 -3.5,-16 -6,-9.5 h -5.5 l -3,1.5 1,3 6,11.5 2,11 -1.5,1 h -8 l -3.5,2 0.5,1.5 4.5,6 v 10 l -1,2.5 v 3 l -4,11.5 -14.5,11 -11,10.5 -12.5,5.5 -9,9.5 -5,22 -6.5,9.5 -14,-6.5 -13,-2 h -18.5 l -11.5,-2 -11.5,-7 -4,-11 -11.5,-4 -10,1.5 -1.5,0.5 -9,10 V 465 l -7,6 -4,1.5 H 889 l -8.5,11 4,14 13,17 -4.5,9.5 -8.5,9 -3.5,15.5 -10,5.5 -11.5,0.5 -8.5,-1.5 -2,1 -5.5,8 -9.5,6.5 -17,-12.5 -10.5,-9.5 -9,-10.5 z"
     id="tihvinskij"
     class="default-fill  default-stroke"
     inkscape:label="tihvinskij">
    <title
       id="title235">tihvinskij</title>
  </path>
  <text
     xml:space="preserve"
     x="875.9389"
     y="403.01645"
     id="tihvinskij_title"
     class="tihvinskij-title  default-title"
     inkscape:label="tihvinskij_title"><title
       id="title237">tihvinskij_title</title><tspan
       sodipodi:role="line"
       id="tspan254"
       x="875.9389"
       y="403.01645">Тихвинский</tspan></text>
  <path
     d="m 881,548.5 3.5,-15.5 8.5,-9 4.5,-9.5 -13,-17 -4,-14 8.5,-11 h 7.5 l 4,-1.5 7,-6 v -18.5 l 9,-10 1.5,-0.5 10,-1.5 11.5,4 4,11 11.5,7 11.5,2 H 985 l 13,2 14,6.5 6.5,-9.5 5,-22 9,-9.5 12.5,-5.5 11,-10.5 14.5,-11 4,-11.5 v -3 l 1,-2.5 v -10 l -4.5,-6 -0.5,-1.5 3.5,-2 h 8 l 1.5,-1 -2,-11 -6,-11.5 -1,-3 3,-1.5 h 5.5 l 6,9.5 3.5,16 5.5,2.5 16,7.5 13.5,7.5 h 9 l 2,1 h 2.5 l 5.5,5 -8.5,10.5 -2,14.5 V 431 l 4.5,18 23,3.5 3.5,2.5 2,16 -0.5,3.5 -14.5,-7 -1.5,2 1,23 -11,15 -7,6 v 2.5 l 9.5,12 -11.5,13.5 v 9 l -4,12 H 1111 l -10.5,13.5 -12,-2 -3,1.5 -7,8 -8.5,-8.5 h -6.5 l -16.5,20 -1.5,12.5 -2.5,3.5 1.5,6.5 -9.5,5.5 -33.5,-15.5 -20,-6 -6.5,-1 -5,1 h -5 l -9,5.5 -5,12.5 -5,-2.5 -4.5,-3 -11,-10.5 -1,-1 -10.5,-2.5 -6.5,-3.5 -8.5,-20 -11.5,-16.5 z"
     id="boksitogorskij"
     class="baksitogorskij  default-fill  default-stroke"
     inkscape:label="boksitogorskij" />
  <text
     xml:space="preserve"
     x="962.96942"
     y="511.02115"
     id="boksitogorskij_title"
     class="baksitogorskij-title  default-title"
     inkscape:label="boksitogorskij_title"><title
       id="title207">boksitogorskij_title</title><tspan
       sodipodi:role="line"
       id="tspan259"
       x="962.96942"
       y="511.02115">Бокситогорский</tspan></text>
  <path
     d="m 770.5,247 17,10 19,7.5 14.5,4 16.5,3 19.5,2 5.5,2 5,4.5 4.5,7 5,13 9,7 5.5,10 2,18 13,6.5 H 956 l 54,-3 5.5,-10.5 -3,-9.5 9,-9 10,-2 11.5,-0.5 -6,-5.5 -17.5,-22 -14,-8.5 -14,-16 -5,-22.5 h 4 l 4,-4 1.5,-4.5 -16,-5.5 1.5,-14 -13,-9 -13.5,-2 -12.5,-10.5 -19,-8.5 -4.5,-9.5 -2.5,-2 -6.5,-4 -3.5,-1.5 v -5 l 5,-14 -2.5,-5 -9.5,-6.5 -13.5,-1.5 -23.5,-13 H 852 l -0.5,10 -15.5,8.5 -11,10 -13.5,16 -2,3 -0.5,9 -11.5,8 -13.5,2.5 -11,5.5 3.5,2.5 3.5,2.5 5,8 -7.5,27 z"
     id="lodejnopolskij"
     class="lodejnopolskij  default-fill  default-stroke "
     inkscape:label="lodejnopolskij"
     style="">
    <title
       id="title186">lodejnopolskij</title>
  </path>
  <text
     xml:space="preserve"
     x="833.45905"
     y="235.9859"
     id="lodejnopolskij_title"
     class="lodejnopolskij-title  default-title"
     inkscape:label="lodejnopolskij_title"><title
       id="title209">lodejnopolskij_title</title><tspan
       sodipodi:role="line"
       id="tspan264"
       x="833.45905"
       y="235.9859">Лодейнопольский</tspan></text>
  <path
     d="m 899.5,127 9.5,6.5 2.5,5 -5,14 v 5 l 10,5.5 2.5,2 4.5,9.5 19,8.5 12.5,10.5 13.5,2 13,9 -1.5,14 16,5.5 -1.5,4.5 -4,4 h -4 l 5,22.5 14,16 14,8.5 17.5,22 6,5.5 18.5,11.5 10.5,1 h 26.5 V 306 l 8,-12.5 6,-20 3.5,-18 5.5,-19 v -18 l -3.5,-15 -4,-12 -10.5,-23.5 v -1 l 14,-14 12.5,-4 15,4.5 h 1 l 10.5,-14.5 2,-9.5 -9,-8 v -4 l -1,-2.5 10,-10 7.5,-6 6,-8.5 5,-19.5 -13,-15.5 h -8.5 L 1145,70 l -4.5,-1 -17,-10 v -7.5 l 4,-14 -3.5,-4.5 -12,7.5 -14.5,4 h -11 l -14,-9.5 -18.5,-7.5 -15,-3 -14,10 -11.5,6.5 -11.5,12 -3.5,20.5 h -5 l -12,-14 L 966,47 l -15,0.5 -55,-4 -28.5,12 -12.5,8.5 6.5,11 18.5,14 11.5,-5.5 11.5,-2 12.5,5.5 v 6.5 l -8,14.5 z"
     id="podporizhskij"
     class="podporozhskij    default-fill  default-stroke "
     inkscape:label="podporizhskij"
     style="">
    <title
       id="title174">podporizhskij</title>
  </path>
  <text
     xml:space="preserve"
     x="971.35529"
     y="139.09988"
     id="podporizhskij_title"
     class="podporozhskij-title  default-title"
     inkscape:label="podporizhskij_title"><title
       id="title176">podporizhskij_title</title><tspan
       sodipodi:role="line"
       id="tspan269"
       x="971.35529"
       y="139.09988">Подпорожский</tspan></text>
</svg>
